<?xml version="1.0" standalone="no"?>
<!DOCTYPE svg PUBLIC "-//W3C//DTD SVG 20010904//EN"
 "http://www.w3.org/TR/2001/REC-SVG-20010904/DTD/svg10.dtd">
<svg version="1.0" xmlns="http://www.w3.org/2000/svg"
 width="348.000000pt" height="348.000000pt" viewBox="0 0 348.000000 348.000000"
 preserveAspectRatio="xMidYMid meet">
<metadata>
Created by potrace 1.14, written by Peter Selinger 2001-2017
</metadata>
<g transform="translate(0.000000,348.000000) scale(0.100000,-0.100000)"
fill="#000000" stroke="none">
<path d="M483 3460 c-46 -28 -53 -66 -53 -313 0 -234 6 -269 51 -301 13 -9 42
-16 65 -16 34 0 49 6 73 31 l31 31 0 260 0 260 -34 34 c-40 40 -83 45 -133 14z"/>
<path d="M2223 3460 c-46 -28 -53 -66 -53 -313 0 -234 6 -269 51 -301 13 -9
43 -16 67 -16 36 0 49 5 73 31 l29 31 0 260 0 260 -34 34 c-40 40 -83 45 -133
14z"/>
<path d="M205 3043 c-93 -22 -146 -62 -181 -138 l-24 -50 0 -1000 c0 -630 4
-1013 10 -1036 13 -47 72 -114 124 -142 l41 -22 673 -3 672 -3 0 111 0 110
-647 2 -648 3 -3 758 -2 757 1195 0 1195 0 0 -215 0 -215 110 0 110 0 0 433
c0 477 -2 499 -60 569 -42 51 -105 78 -195 85 l-75 6 0 -80 c0 -69 -4 -89 -28
-134 -64 -124 -220 -155 -327 -66 -55 45 -75 96 -75 195 l0 82 -655 0 -655 0
0 -79 c0 -67 -4 -87 -28 -132 -64 -123 -220 -155 -326 -67 -54 45 -69 81 -76
183 l-5 90 -50 2 c-27 0 -59 -1 -70 -4z"/>
<path d="M437 2173 c-4 -3 -7 -102 -7 -220 l0 -213 220 0 220 0 0 220 0 220
-213 0 c-118 0 -217 -3 -220 -7z"/>
<path d="M1090 1960 l0 -220 215 0 215 0 0 220 0 220 -215 0 -215 0 0 -220z"/>
<path d="M1740 1960 l0 -220 220 0 220 0 -2 218 -3 217 -217 3 -218 2 0 -220z"/>
<path d="M2460 1729 c-85 -15 -213 -63 -287 -107 -433 -259 -564 -817 -288
-1231 116 -176 293 -303 503 -364 111 -31 333 -31 444 0 158 46 279 117 392
229 112 113 183 234 229 392 31 111 31 333 0 444 -89 307 -313 532 -616 619
-84 24 -290 34 -377 18z m303 -228 c230 -59 403 -225 472 -451 9 -30 19 -98
22 -150 22 -378 -299 -699 -677 -677 -52 3 -120 13 -150 22 -371 113 -564 507
-423 865 118 299 448 469 756 391z"/>
<path d="M2474 1303 c-12 -2 -34 -18 -50 -34 l-29 -30 -3 -249 c-4 -361 -23
-342 338 -338 l249 3 29 28 c37 35 46 77 28 122 -24 58 -52 65 -251 65 l-175
0 0 175 c0 199 -7 227 -65 251 -19 8 -38 13 -42 13 -4 -1 -18 -4 -29 -6z"/>
<path d="M430 1305 l0 -215 220 0 220 0 0 215 0 215 -220 0 -220 0 0 -215z"/>
<path d="M1090 1305 l0 -215 215 0 215 0 0 215 0 215 -215 0 -215 0 0 -215z"/>
</g>
</svg>
